<svg version="1.1" id="Layer_1" xmlns="http://www.w3.org/2000/svg" xmlns:xlink="http://www.w3.org/1999/xlink" x="0px" y="0px"
	 width="100%" viewBox="0 0 128 128" enable-background="new 0 0 128 128" xml:space="preserve">
<path fill="#0B0B04" opacity="1.000000" stroke="none" 
	d="
M1.000000,71.000000 
	C1.000000,70.250000 1.000000,69.500000 1.457760,68.367233 
	C3.912356,67.984070 5.921276,68.118156 7.902164,67.940208 
	C9.454280,67.800774 11.579350,67.788979 12.393218,66.826744 
	C15.083464,63.646084 17.294741,60.060307 19.950073,56.257332 
	C11.619961,50.994820 13.159991,42.219620 12.958292,33.916798 
	C12.752361,25.439831 15.178762,18.048008 20.299458,11.728227 
	C24.660095,17.225227 28.473166,22.031969 32.849899,27.549259 
	C33.245121,14.789268 36.790752,7.341542 42.947639,6.032269 
	C43.388794,12.895585 37.896355,22.080351 48.380840,24.716990 
	C52.000111,19.789999 54.625347,14.777269 58.567814,11.227475 
	C63.103943,7.143139 68.804932,4.352513 74.000000,1.000000 
	C76.041748,1.000000 78.083496,1.000000 80.571884,1.361353 
	C80.470917,3.859393 80.189621,6.112228 79.319145,8.108101 
	C77.612694,12.020732 77.202057,16.722530 78.810066,20.771530 
	C81.730583,9.838881 89.460129,6.222780 100.063835,6.470036 
	C99.710487,8.090078 99.135666,9.767800 97.988983,10.387725 
	C92.025284,13.611859 89.399757,18.728214 90.536606,25.667877 
	C92.958061,24.783649 95.311165,23.576159 97.805626,23.081434 
	C104.243980,21.804514 109.344147,18.727169 113.254669,13.389941 
	C114.021515,12.343328 116.110527,12.265457 118.290916,11.492095 
	C117.798149,17.033623 117.596695,21.454462 116.975990,25.815634 
	C115.803780,34.051876 116.710167,42.672035 112.064522,50.290688 
	C110.207893,53.335484 111.963631,55.809681 115.631714,55.964359 
	C118.056213,56.066597 120.488518,55.983715 123.573868,55.983715 
	C122.513687,59.002525 121.716858,61.271461 120.961624,63.421963 
	C123.951813,64.008972 126.475906,64.504486 129.000000,65.000000 
	C129.000000,65.444443 129.000000,65.888893 128.554459,66.674423 
	C122.759743,67.180916 117.410568,67.346329 111.040413,67.543312 
	C119.835388,82.232201 115.932686,95.088455 108.721260,107.780899 
	C108.095421,107.780899 106.672882,107.780899 105.596313,107.780899 
	C104.891411,104.859718 104.253532,102.216309 103.615662,99.572899 
	C103.140564,99.658249 102.665466,99.743599 102.190369,99.828949 
	C102.190369,101.704498 102.197891,103.580086 102.188560,105.455589 
	C102.175323,108.115463 102.494743,110.841957 101.998634,113.409882 
	C101.705681,114.926193 100.113258,116.191444 99.105209,117.569603 
	C98.064873,116.109940 96.382141,114.759247 96.112366,113.168869 
	C95.468239,109.371719 93.467270,107.896019 89.838234,108.003716 
	C87.687271,108.067543 85.532867,108.015388 83.454742,108.015388 
	C81.090584,116.392685 75.871971,122.052071 68.624695,126.104553 
	C67.547066,126.707138 66.865044,128.017227 66.000000,129.000000 
	C64.933151,129.000000 63.866299,129.000000 62.304630,128.650238 
	C61.761524,127.484093 61.343422,126.255074 61.722408,125.915405 
	C65.336021,122.676628 64.743546,118.991409 62.192848,115.882553 
	C59.744701,112.898674 56.427650,110.627701 54.348858,108.797470 
	C49.656898,112.200142 45.586197,115.569229 41.075108,118.176308 
	C39.674267,118.985901 37.079021,117.728783 35.030590,117.417831 
	C35.989147,116.125389 36.677315,114.304512 37.961075,113.647652 
	C40.869118,112.159676 41.895237,110.648674 40.196781,107.473358 
	C39.147717,105.512115 38.902328,103.120995 38.274593,100.844734 
	C31.817228,104.762672 31.488306,110.750381 32.216351,118.618172 
	C24.954687,113.259262 18.353361,108.584427 15.841960,101.848778 
	C12.535699,92.981308 11.714502,83.126785 18.155697,73.678047 
	C11.717022,75.544662 5.939599,75.365509 1.000000,71.000000 
M79.940224,60.186405 
	C79.918053,58.832172 79.895882,57.477936 80.570099,56.042118 
	C81.036156,56.030235 81.502205,56.018356 82.246155,56.608795 
	C82.628891,61.475616 85.080238,58.756153 87.931000,57.961521 
	C102.130768,59.359791 109.796234,51.682869 111.376251,38.926201 
	C112.007019,33.833565 112.783638,28.758810 113.392540,23.663805 
	C113.512268,22.661966 113.166527,21.604496 113.090652,21.007175 
	C106.165192,24.055126 99.560684,26.961828 92.157616,29.800219 
	C90.101288,30.212395 88.044968,30.624569 85.968628,30.188196 
	C86.551003,24.961658 87.133369,19.735121 87.715736,14.508584 
	C84.816505,17.249777 83.653244,21.093214 81.069832,23.170410 
	C76.894348,26.527723 76.517715,30.359156 76.596588,34.957523 
	C76.182152,34.964691 75.767708,34.971863 75.012856,34.161922 
	C74.745773,24.875046 70.972481,15.651490 75.364937,5.747857 
	C62.425503,9.492951 55.961475,18.378712 52.123169,29.368248 
	C50.747032,33.308296 51.161987,37.873917 50.817474,42.921547 
	C50.887623,43.945374 50.957771,44.969204 50.339756,45.992699 
	C49.880947,45.997150 49.422138,46.001602 48.591389,45.424751 
	C46.713482,43.315681 44.835575,41.206612 42.361748,38.400566 
	C42.551941,37.627911 42.742138,36.855259 43.701664,35.975735 
	C45.154270,36.358566 46.606876,36.741398 48.125847,37.387505 
	C48.218689,37.414551 48.311531,37.441597 48.404373,37.468639 
	C48.298752,37.323837 48.193127,37.179035 48.095547,36.232918 
	C48.393536,33.981991 48.691528,31.731060 49.024929,29.212643 
	C42.262844,27.616375 39.349228,23.015251 38.308098,16.661644 
	C37.335529,18.795952 36.755306,20.922710 36.062862,23.012280 
	C34.832611,26.724771 35.515381,29.891684 38.569721,32.445194 
	C40.021080,33.658566 41.478230,34.865017 42.504879,36.900299 
	C32.798271,34.147327 26.898254,26.413286 19.889784,19.062832 
	C19.136711,21.720097 18.483904,23.742777 17.992338,25.803911 
	C14.930683,38.641430 15.722772,50.365837 27.603952,58.887154 
	C28.237768,59.341732 28.579071,60.204159 28.954903,61.737720 
	C28.905972,62.022541 28.857040,62.307362 28.048973,62.361034 
	C21.533768,59.558792 17.520264,62.045395 16.005976,71.331841 
	C20.552019,69.054108 24.227629,67.212502 28.028479,66.338074 
	C28.071392,66.660309 28.114307,66.982552 27.811771,67.863342 
	C26.108032,70.175499 24.404291,72.487656 22.189732,75.287102 
	C14.485196,90.127243 16.532103,103.139145 26.369631,108.215477 
	C29.633490,104.421944 32.113728,99.982788 35.884338,97.516182 
	C41.752003,93.677780 46.663448,89.736618 48.202301,82.403900 
	C48.485538,82.971329 48.768772,83.538765 49.017467,84.941490 
	C49.244114,89.228477 49.496746,93.514412 49.670261,97.803551 
	C49.697231,98.470314 49.362793,99.151688 48.480911,99.913147 
	C47.382202,98.354126 46.283497,96.795097 45.049667,95.044334 
	C40.740204,100.353302 43.952995,105.543159 44.267334,110.971489 
	C49.704426,109.249947 50.297905,105.219025 50.916565,100.459641 
	C56.855930,107.342537 67.990112,109.779045 67.668350,122.515282 
	C73.783920,117.413193 79.109596,113.392929 79.682037,106.625633 
	C80.372475,98.463509 83.310661,89.506172 74.669640,82.344421 
	C74.559792,81.235207 74.449944,80.125999 74.367378,79.292259 
	C77.127174,81.115868 79.390076,82.611153 81.881363,84.672089 
	C82.718811,85.548439 83.556259,86.424789 84.195129,88.262756 
	C84.150040,88.915543 84.104942,89.568329 83.396347,90.681114 
	C83.297386,93.804642 82.737648,97.013344 83.292664,100.015984 
	C83.572723,101.531044 85.669182,103.362885 87.300140,103.843147 
	C90.968323,104.923294 94.858490,105.249588 99.169075,105.967819 
	C98.577209,104.230888 97.913261,102.285828 97.251602,100.339989 
	C95.227013,94.386002 88.955040,93.762787 86.061676,90.150208 
	C86.887672,90.013123 87.713676,89.876038 89.239494,89.852798 
	C95.697662,92.605125 102.155823,95.357460 108.903404,98.233131 
	C112.071922,89.517410 112.695839,79.713768 107.470047,70.584740 
	C105.655258,67.414444 101.282585,65.708382 97.543640,62.856735 
	C93.532837,62.322075 89.522026,61.787418 84.594612,61.086761 
	C83.073341,61.057877 81.552063,61.028996 79.940224,60.186405 
M110.519768,64.687149 
	C112.923584,63.697334 115.327393,62.707516 117.950073,61.627579 
	C115.632973,60.536987 113.110115,59.798569 111.133606,58.326550 
	C106.913460,55.183575 105.390938,55.317131 102.205399,59.579853 
	C104.094017,61.747658 105.868652,63.919262 107.838387,65.896500 
	C108.124939,66.184143 109.344292,65.542503 110.519768,64.687149 
M100.203171,98.634979 
	C100.776886,98.726860 101.350609,98.818741 101.924324,98.910629 
	C101.536461,98.629845 101.148598,98.349068 100.203171,98.634979 
z"/>
<path fill="#FFFFFF" opacity="1.000000" stroke="none" 
	d="
M73.531342,1.000000 
	C68.804932,4.352513 63.103943,7.143139 58.567814,11.227475 
	C54.625347,14.777269 52.000111,19.789999 48.380840,24.716990 
	C37.896355,22.080351 43.388794,12.895585 42.947639,6.032269 
	C36.790752,7.341542 33.245121,14.789268 32.849899,27.549259 
	C28.473166,22.031969 24.660095,17.225227 20.299458,11.728227 
	C15.178762,18.048008 12.752361,25.439831 12.958292,33.916798 
	C13.159991,42.219620 11.619961,50.994820 19.950073,56.257332 
	C17.294741,60.060307 15.083464,63.646084 12.393218,66.826744 
	C11.579350,67.788979 9.454280,67.800774 7.902164,67.940208 
	C5.921276,68.118156 3.912356,67.984070 1.457760,67.992233 
	C1.000000,45.736679 1.000000,23.473360 1.000000,1.000000 
	C25.020487,1.000000 49.041584,1.000000 73.531342,1.000000 
z"/>
<path fill="#FFFFFF" opacity="1.000000" stroke="none" 
	d="
M66.468658,129.000000 
	C66.865044,128.017227 67.547066,126.707138 68.624695,126.104553 
	C75.871971,122.052071 81.090584,116.392685 83.454742,108.015388 
	C85.532867,108.015388 87.687271,108.067543 89.838234,108.003716 
	C93.467270,107.896019 95.468239,109.371719 96.112366,113.168869 
	C96.382141,114.759247 98.064873,116.109940 99.105209,117.569603 
	C100.113258,116.191444 101.705681,114.926193 101.998634,113.409882 
	C102.494743,110.841957 102.175323,108.115463 102.188560,105.455589 
	C102.197891,103.580086 102.190369,101.704498 102.190369,99.828949 
	C102.665466,99.743599 103.140564,99.658249 103.615662,99.572899 
	C104.253532,102.216309 104.891411,104.859718 105.596313,107.780899 
	C106.672882,107.780899 108.095421,107.780899 108.721260,107.780899 
	C115.932686,95.088455 119.835388,82.232201 111.040413,67.543312 
	C117.410568,67.346329 122.759743,67.180916 128.554459,67.007751 
	C129.000000,87.594078 129.000000,108.188148 129.000000,129.000000 
	C108.312950,129.000000 87.625130,129.000000 66.468658,129.000000 
z"/>
<path fill="#FFFFFF" opacity="1.000000" stroke="none" 
	d="
M1.000000,71.468658 
	C5.939599,75.365509 11.717022,75.544662 18.155697,73.678047 
	C11.714502,83.126785 12.535699,92.981308 15.841960,101.848778 
	C18.353361,108.584427 24.954687,113.259262 32.216351,118.618172 
	C31.488306,110.750381 31.817228,104.762672 38.274593,100.844734 
	C38.902328,103.120995 39.147717,105.512115 40.196781,107.473358 
	C41.895237,110.648674 40.869118,112.159676 37.961075,113.647652 
	C36.677315,114.304512 35.989147,116.125389 35.030590,117.417831 
	C37.079021,117.728783 39.674267,118.985901 41.075108,118.176308 
	C45.586197,115.569229 49.656898,112.200142 54.348858,108.797470 
	C56.427650,110.627701 59.744701,112.898674 62.192848,115.882553 
	C64.743546,118.991409 65.336021,122.676628 61.722408,125.915405 
	C61.343422,126.255074 61.761524,127.484093 61.904907,128.650238 
	C41.741703,129.000000 21.483406,129.000000 1.000000,129.000000 
	C1.000000,109.979698 1.000000,90.958504 1.000000,71.468658 
z"/>
<path fill="#FFFFFF" opacity="1.000000" stroke="none" 
	d="
M129.000000,64.531342 
	C126.475906,64.504486 123.951813,64.008972 120.961624,63.421963 
	C121.716858,61.271461 122.513687,59.002525 123.573868,55.983715 
	C120.488518,55.983715 118.056213,56.066597 115.631714,55.964359 
	C111.963631,55.809681 110.207893,53.335484 112.064522,50.290688 
	C116.710167,42.672035 115.803780,34.051876 116.975990,25.815634 
	C117.596695,21.454462 117.798149,17.033623 118.290916,11.492095 
	C116.110527,12.265457 114.021515,12.343328 113.254669,13.389941 
	C109.344147,18.727169 104.243980,21.804514 97.805626,23.081434 
	C95.311165,23.576159 92.958061,24.783649 90.536606,25.667877 
	C89.399757,18.728214 92.025284,13.611859 97.988983,10.387725 
	C99.135666,9.767800 99.710487,8.090078 100.063835,6.470036 
	C89.460129,6.222780 81.730583,9.838881 78.810066,20.771530 
	C77.202057,16.722530 77.612694,12.020732 79.319145,8.108101 
	C80.189621,6.112228 80.470917,3.859393 81.009262,1.361353 
	C96.937248,1.000000 112.874489,1.000000 129.000000,1.000000 
	C129.000000,22.020519 129.000000,43.041603 129.000000,64.531342 
z"/>
<path fill="#E2CF4C" opacity="1.000000" stroke="none" 
	d="
M74.936752,83.038177 
	C83.310661,89.506172 80.372475,98.463509 79.682037,106.625633 
	C79.109596,113.392929 73.783920,117.413193 67.668350,122.515282 
	C67.990112,109.779045 56.855930,107.342537 50.524052,100.643860 
	C50.131538,100.828072 50.093746,100.919250 50.247910,100.541283 
	C49.956779,100.077133 49.511490,99.990952 49.110878,99.905518 
	C49.155556,99.906265 49.195477,99.826309 49.195480,99.826309 
	C49.362793,99.151688 49.697231,98.470314 49.670261,97.803551 
	C49.496746,93.514412 49.244114,89.228477 49.220039,84.453156 
	C49.422611,83.964828 49.804085,83.855705 50.174194,83.933594 
	C55.363033,87.353279 56.817368,80.602142 60.997395,80.389824 
	C59.513077,85.885765 59.518429,90.883453 63.736244,96.087257 
	C63.860264,93.687775 63.656662,92.188507 64.062744,90.878181 
	C64.967407,87.959068 65.751495,84.823204 67.494316,82.441200 
	C68.098717,81.615128 71.387413,82.761757 73.452080,82.989105 
	C73.942825,83.043137 74.441643,83.023773 74.936752,83.038177 
z"/>
<path fill="#E1CE4C" opacity="1.000000" stroke="none" 
	d="
M42.932331,36.082603 
	C42.742138,36.855259 42.551941,37.627911 42.669765,39.128807 
	C43.616261,41.610203 44.254738,43.363350 45.324078,46.299572 
	C37.178230,43.642300 35.824268,50.064781 33.538795,54.314983 
	C32.930183,55.446793 36.418514,58.781666 37.577415,61.148548 
	C34.438171,61.086926 31.747358,60.981827 29.056545,60.876724 
	C28.579071,60.204159 28.237768,59.341732 27.603952,58.887154 
	C15.722772,50.365837 14.930683,38.641430 17.992338,25.803911 
	C18.483904,23.742777 19.136711,21.720097 19.889784,19.062832 
	C26.898254,26.413286 32.798271,34.147327 42.750870,36.453506 
	C42.996857,36.006714 42.932331,36.082603 42.932331,36.082603 
z"/>
<path fill="#E1CE4C" opacity="1.000000" stroke="none" 
	d="
M47.537735,82.341301 
	C46.663448,89.736618 41.752003,93.677780 35.884338,97.516182 
	C32.113728,99.982788 29.633490,104.421944 26.369631,108.215477 
	C16.532103,103.139145 14.485196,90.127243 22.791233,75.104721 
	C24.843586,74.563431 26.315029,74.271370 27.741087,73.832001 
	C30.918566,72.853020 34.073360,71.800423 37.237396,70.777824 
	C37.359386,71.232765 37.481373,71.687698 37.603359,72.142639 
	C35.384762,75.081993 33.166161,78.021347 30.947561,80.960693 
	C31.258013,81.190773 31.568462,81.420845 31.878914,81.650925 
	C35.379669,79.840363 38.880428,78.029800 43.642284,75.567009 
	C42.073868,79.122223 41.146034,81.225380 39.739483,84.413681 
	C42.872902,83.651588 44.876102,83.164383 47.117104,82.736687 
	C47.354904,82.796204 47.537735,82.341301 47.537735,82.341301 
z"/>
<path fill="#E1CE4C" opacity="1.000000" stroke="none" 
	d="
M92.956177,29.868532 
	C99.560684,26.961828 106.165192,24.055126 113.090652,21.007175 
	C113.166527,21.604496 113.512268,22.661966 113.392540,23.663805 
	C112.783638,28.758810 112.007019,33.833565 111.376251,38.926201 
	C109.796234,51.682869 102.130768,59.359791 87.516464,57.555969 
	C87.403038,56.033337 88.250603,54.706009 87.915062,53.833858 
	C85.979958,48.804062 89.757675,47.315823 92.777603,45.048523 
	C96.924232,41.935314 100.807037,38.470711 104.802895,35.156681 
	C104.427635,34.634933 104.052376,34.113186 103.677116,33.591438 
	C97.317780,37.561386 90.958443,41.531330 83.490425,46.193390 
	C87.094414,39.977867 90.025291,34.923199 92.956177,29.868532 
z"/>
<path fill="#BC9B3A" opacity="1.000000" stroke="none" 
	d="
M74.803192,82.691299 
	C74.441643,83.023773 73.942825,83.043137 73.452080,82.989105 
	C71.387413,82.761757 68.098717,81.615128 67.494316,82.441200 
	C65.751495,84.823204 64.967407,87.959068 64.062744,90.878181 
	C63.656662,92.188507 63.860264,93.687775 63.736244,96.087257 
	C59.518429,90.883453 59.513077,85.885765 60.997395,80.389824 
	C56.817368,80.602142 55.363033,87.353279 50.257790,83.594131 
	C51.046692,81.353294 51.952682,79.399483 53.233700,77.734161 
	C55.705772,74.520454 58.488445,71.761978 63.266380,74.657455 
	C65.910606,75.081657 68.475296,75.841599 69.280098,72.208954 
	C69.454170,71.423264 71.123604,70.936790 72.140396,70.378288 
	C73.317635,69.731659 74.873123,69.440399 75.664375,68.493477 
	C77.328323,66.502144 78.600288,64.183273 80.010788,61.997383 
	C79.988441,61.995930 79.982132,62.040268 80.341431,62.071205 
	C82.304222,61.819012 83.907722,61.535885 85.511223,61.252762 
	C89.522026,61.787418 93.532837,62.322075 97.792206,63.503231 
	C97.560463,64.982758 97.270683,66.292664 96.569481,66.572830 
	C91.303848,68.676666 93.514839,70.737129 95.977547,73.746506 
	C98.343994,76.638260 99.698738,80.357933 101.671501,84.037331 
	C96.429825,80.608345 92.066635,77.464371 87.396400,74.873978 
	C85.980446,74.088600 83.086861,74.137192 82.031006,75.090126 
	C81.125839,75.907059 81.913506,78.561790 81.886459,80.402794 
	C81.868317,81.638214 81.734848,82.871941 81.652985,84.106430 
	C79.390076,82.611153 77.127174,81.115868 74.367378,79.292259 
	C74.449944,80.125999 74.559792,81.235207 74.803192,82.691299 
z"/>
<path fill="#E0CD4C" opacity="1.000000" stroke="none" 
	d="
M81.767174,84.389259 
	C81.734848,82.871941 81.868317,81.638214 81.886459,80.402794 
	C81.913506,78.561790 81.125839,75.907059 82.031006,75.090126 
	C83.086861,74.137192 85.980446,74.088600 87.396400,74.873978 
	C92.066635,77.464371 96.429825,80.608345 101.671501,84.037331 
	C99.698738,80.357933 98.343994,76.638260 95.977547,73.746506 
	C93.514839,70.737129 91.303848,68.676666 96.569481,66.572830 
	C97.270683,66.292664 97.560463,64.982758 98.059479,63.741642 
	C101.282585,65.708382 105.655258,67.414444 107.470047,70.584740 
	C112.695839,79.713768 112.071922,89.517410 108.903404,98.233131 
	C102.155823,95.357460 95.697662,92.605125 88.671204,89.518539 
	C86.866501,88.556564 85.630104,87.928856 84.393707,87.301147 
	C83.556259,86.424789 82.718811,85.548439 81.767174,84.389259 
z"/>
<path fill="#E1CE4C" opacity="1.000000" stroke="none" 
	d="
M50.759483,42.154026 
	C51.161987,37.873917 50.747032,33.308296 52.123169,29.368248 
	C55.961475,18.378712 62.425503,9.492951 75.364937,5.747857 
	C70.972481,15.651490 74.745773,24.875046 75.231087,35.003273 
	C75.507500,37.005676 75.565681,38.166737 75.214172,39.231888 
	C67.995438,38.813465 65.679695,33.255138 62.676445,27.798212 
	C62.698212,36.690353 57.646259,40.222897 50.759483,42.154026 
z"/>
<path fill="#220F0D" opacity="1.000000" stroke="none" 
	d="
M63.025166,74.383636 
	C58.488445,71.761978 55.705772,74.520454 53.233700,77.734161 
	C51.952682,79.399483 51.046692,81.353294 49.887680,83.516235 
	C49.804085,83.855705 49.422611,83.964828 49.237309,84.035507 
	C48.768772,83.538765 48.485538,82.971329 47.870018,82.372604 
	C47.537735,82.341301 47.354904,82.796204 47.393494,82.392990 
	C48.843945,79.369331 50.255802,76.748871 51.646011,74.168594 
	C49.345749,69.827957 47.003036,65.407227 44.796501,60.782364 
	C45.042423,60.259556 45.228352,59.994255 45.827530,59.915634 
	C47.711311,60.028835 49.258011,60.008747 50.986111,60.290573 
	C52.056137,61.269085 53.589214,62.648666 53.735039,62.514988 
	C55.447289,60.945305 57.445549,59.361382 58.320328,57.329910 
	C58.824203,56.159786 58.548290,52.869316 55.026730,54.162807 
	C51.233288,51.101570 55.409245,48.412895 55.195442,45.517372 
	C57.081711,44.374401 58.889729,43.663471 60.222332,42.436291 
	C63.817162,39.125847 69.343987,40.225182 71.155678,44.743118 
	C71.670975,46.028145 72.398315,47.228142 73.028839,48.765137 
	C73.370872,49.716999 73.712471,50.370857 74.200417,51.284409 
	C74.782631,52.194981 75.218498,52.845863 75.295708,53.751934 
	C74.714470,55.075577 74.491890,56.144032 74.211288,57.204803 
	C74.153252,57.197117 74.179710,57.083076 73.881958,57.237526 
	C73.401260,58.231400 73.218307,59.070827 72.633865,59.947052 
	C71.238419,60.381561 69.380020,60.781055 69.380836,61.176727 
	C69.392105,66.658440 65.295807,67.066063 61.425632,67.455070 
	C62.020649,70.032448 62.522907,72.208046 63.025166,74.383636 
M62.227367,52.350807 
	C64.412529,51.113525 66.917503,50.186455 68.595123,48.456879 
	C69.123680,47.911945 67.434334,45.215744 66.760078,43.504135 
	C64.527382,44.710289 62.033779,45.632721 60.223106,47.297798 
	C59.689182,47.788792 61.085976,50.379322 62.227367,52.350807 
M66.443672,63.695065 
	C68.445366,58.828114 65.939392,56.652996 61.658749,55.290154 
	C59.459846,65.146919 59.579979,65.391991 66.443672,63.695065 
M57.993847,69.552193 
	C58.653732,67.879173 61.645138,65.553398 56.664967,65.245445 
	C56.209984,66.719994 55.785110,68.096970 55.360237,69.473938 
	C56.149727,69.712334 56.939217,69.950729 57.993847,69.552193 
z"/>
<path fill="#BA9B3A" opacity="1.000000" stroke="none" 
	d="
M75.654366,53.496750 
	C75.218498,52.845863 74.782631,52.194981 74.359367,50.977631 
	C75.924194,47.232635 77.532013,44.079632 79.007591,40.865910 
	C79.877480,38.971336 80.537750,36.980507 81.602516,34.972492 
	C83.271378,33.620258 84.630005,32.328503 85.988640,31.036743 
	C88.044968,30.624569 90.101288,30.212395 92.556900,29.834377 
	C90.025291,34.923199 87.094414,39.977867 83.490425,46.193390 
	C90.958443,41.531330 97.317780,37.561386 103.677116,33.591438 
	C104.052376,34.113186 104.427635,34.634933 104.802895,35.156681 
	C100.807037,38.470711 96.924232,41.935314 92.777603,45.048523 
	C89.757675,47.315823 85.979958,48.804062 87.915062,53.833858 
	C88.250603,54.706009 87.403038,56.033337 87.061264,57.530548 
	C85.080238,58.756153 82.628891,61.475616 82.083221,55.990562 
	C81.301758,54.854931 80.683220,54.337524 79.851028,53.609734 
	C78.309700,53.431816 76.982033,53.464283 75.654366,53.496750 
z"/>
<path fill="#B89839" opacity="1.000000" stroke="none" 
	d="
M44.660328,60.986496 
	C47.003036,65.407227 49.345749,69.827957 51.646011,74.168594 
	C50.255802,76.748871 48.843945,79.369331 47.155697,82.333481 
	C44.876102,83.164383 42.872902,83.651588 39.739483,84.413681 
	C41.146034,81.225380 42.073868,79.122223 43.642284,75.567009 
	C38.880428,78.029800 35.379669,79.840363 31.878914,81.650925 
	C31.568462,81.420845 31.258013,81.190773 30.947561,80.960693 
	C33.166161,78.021347 35.384762,75.081993 37.603359,72.142639 
	C37.481373,71.687698 37.359386,71.232765 37.237396,70.777824 
	C34.073360,71.800423 30.918566,72.853020 27.741087,73.832001 
	C26.315029,74.271370 24.843586,74.563431 23.046644,74.861076 
	C24.404291,72.487656 26.108032,70.175499 28.373764,67.559471 
	C32.270687,66.412659 35.665096,65.744095 38.909988,64.637192 
	C40.133129,64.219963 41.010117,62.787964 42.235985,61.604069 
	C43.171490,61.255211 43.915909,61.120853 44.660328,60.986496 
z"/>
<path fill="#BF9D3B" opacity="1.000000" stroke="none" 
	d="
M44.796501,60.782364 
	C43.915909,61.120853 43.171490,61.255211 41.889023,61.592514 
	C40.242596,61.565331 39.134220,61.335197 38.025845,61.105068 
	C36.418514,58.781666 32.930183,55.446793 33.538795,54.314983 
	C35.824268,50.064781 37.178230,43.642300 45.324078,46.299572 
	C44.254738,43.363350 43.616261,41.610203 42.967728,39.477295 
	C44.835575,41.206612 46.713482,43.315681 48.780125,46.100544 
	C49.762535,49.181450 50.556206,51.586559 50.897621,52.621170 
	C48.587700,55.680397 47.039074,57.731369 45.490448,59.782341 
	C45.228352,59.994255 45.042423,60.259556 44.796501,60.782364 
z"/>
<path fill="#B9963A" opacity="1.000000" stroke="none" 
	d="
M73.028412,48.467133 
	C72.398315,47.228142 71.670975,46.028145 71.155678,44.743118 
	C69.343987,40.225182 63.817162,39.125847 60.222332,42.436291 
	C58.889729,43.663471 57.081711,44.374401 54.800308,45.564175 
	C53.082714,45.869400 52.055321,45.931213 51.027924,45.993027 
	C50.957771,44.969204 50.887623,43.945374 50.788479,42.537788 
	C57.646259,40.222897 62.698212,36.690353 62.676445,27.798212 
	C65.679695,33.255138 67.995438,38.813465 75.307457,39.538918 
	C74.883087,42.783615 73.955750,45.625374 73.028412,48.467133 
z"/>
<path fill="#889831" opacity="1.000000" stroke="none" 
	d="
M84.831734,90.442932 
	C88.955040,93.762787 95.227013,94.386002 97.251602,100.339989 
	C97.913261,102.285828 98.577209,104.230888 99.169075,105.967819 
	C94.858490,105.249588 90.968323,104.923294 87.300140,103.843147 
	C85.669182,103.362885 83.572723,101.531044 83.292664,100.015984 
	C82.737648,97.013344 83.297386,93.804642 83.844093,90.537689 
	C84.291840,90.394264 84.554886,90.496811 84.554886,90.496811 
	C84.554886,90.496811 84.831734,90.442932 84.831734,90.442932 
z"/>
<path fill="#83932F" opacity="1.000000" stroke="none" 
	d="
M42.964806,36.040657 
	C41.478230,34.865017 40.021080,33.658566 38.569721,32.445194 
	C35.515381,29.891684 34.832611,26.724771 36.062862,23.012280 
	C36.755306,20.922710 37.335529,18.795952 38.308098,16.661644 
	C39.349228,23.015251 42.262844,27.616375 49.024929,29.212643 
	C48.691528,31.731060 48.393536,33.981991 48.046791,36.644279 
	C47.998032,37.055637 48.059483,37.124226 48.059483,37.124226 
	C46.606876,36.741398 45.154270,36.358566 43.316998,36.029167 
	C42.932331,36.082603 42.996857,36.006714 42.964806,36.040657 
z"/>
<path fill="#83922F" opacity="1.000000" stroke="none" 
	d="
M85.978638,30.612469 
	C84.630005,32.328503 83.271378,33.620258 81.436325,34.677166 
	C79.712479,34.600506 78.465050,34.758698 77.217613,34.916889 
	C76.517715,30.359156 76.894348,26.527723 81.069832,23.170410 
	C83.653244,21.093214 84.816505,17.249777 87.715736,14.508584 
	C87.133369,19.735121 86.551003,24.961658 85.978638,30.612469 
z"/>
<path fill="#83932F" opacity="1.000000" stroke="none" 
	d="
M110.325890,65.009010 
	C109.344292,65.542503 108.124939,66.184143 107.838387,65.896500 
	C105.868652,63.919262 104.094017,61.747658 102.205399,59.579853 
	C105.390938,55.317131 106.913460,55.183575 111.133606,58.326550 
	C113.110115,59.798569 115.632973,60.536987 117.950073,61.627579 
	C115.327393,62.707516 112.923584,63.697334 110.325890,65.009010 
z"/>
<path fill="#889831" opacity="1.000000" stroke="none" 
	d="
M50.179649,100.817062 
	C50.297905,105.219025 49.704426,109.249947 44.267334,110.971489 
	C43.952995,105.543159 40.740204,100.353302 45.049667,95.044334 
	C46.283497,96.795097 47.382202,98.354126 48.838196,99.869728 
	C49.195477,99.826309 49.155556,99.906265 49.058792,100.248734 
	C49.339268,100.700554 49.716507,100.809906 50.093746,100.919250 
	C50.093746,100.919250 50.131538,100.828072 50.179649,100.817062 
z"/>
<path fill="#859530" opacity="1.000000" stroke="none" 
	d="
M27.903238,65.370888 
	C24.227629,67.212502 20.552019,69.054108 16.005976,71.331841 
	C17.520264,62.045395 21.533768,59.558792 28.494738,62.731293 
	C28.594748,63.857998 28.248993,64.614441 27.903238,65.370888 
z"/>
<path fill="#1C1909" opacity="1.000000" stroke="none" 
	d="
M50.683838,45.992863 
	C52.055321,45.931213 53.082714,45.869400 54.505249,45.760788 
	C55.409245,48.412895 51.233288,51.101570 54.845024,54.382072 
	C54.195431,55.650013 53.583511,56.343224 52.985970,57.021912 
	C53.000347,57.007393 53.027351,56.976982 52.696056,57.085823 
	C51.844742,58.125992 51.324722,59.057323 50.804707,59.988655 
	C49.258011,60.008747 47.711311,60.028835 45.827534,59.915634 
	C47.039074,57.731369 48.587700,55.680397 50.897621,52.621170 
	C50.556206,51.586559 49.762535,49.181450 48.966095,46.391193 
	C49.422138,46.001602 49.880947,45.997150 50.683838,45.992863 
z"/>
<path fill="#141206" opacity="1.000000" stroke="none" 
	d="
M76.907104,34.937206 
	C78.465050,34.758698 79.712479,34.600506 81.126099,34.737640 
	C80.537750,36.980507 79.877480,38.971336 79.007591,40.865910 
	C77.532013,44.079632 75.924194,47.232635 74.213020,50.717941 
	C73.712471,50.370857 73.370872,49.716999 73.028839,48.765137 
	C73.955750,45.625374 74.883087,42.783615 75.717148,39.634827 
	C75.565681,38.166737 75.507500,37.005676 75.401291,35.411827 
	C75.767708,34.971863 76.182152,34.964691 76.907104,34.937206 
z"/>
<path fill="#201E0B" opacity="1.000000" stroke="none" 
	d="
M27.965858,65.854477 
	C28.248993,64.614441 28.594748,63.857998 28.874306,62.846867 
	C28.857040,62.307362 28.905972,62.022541 29.005724,61.307224 
	C31.747358,60.981827 34.438171,61.086926 37.577415,61.148548 
	C39.134220,61.335197 40.242596,61.565331 41.697937,61.807014 
	C41.010117,62.787964 40.133129,64.219963 38.909988,64.637192 
	C35.665096,65.744095 32.270687,66.412659 28.546490,67.280197 
	C28.114307,66.982552 28.071392,66.660309 27.965858,65.854477 
z"/>
<path fill="#B23247" opacity="1.000000" stroke="none" 
	d="
M79.873703,56.123703 
	C79.895882,57.477936 79.918053,58.832172 79.930161,60.851257 
	C79.940781,61.690826 79.961456,61.865547 79.982132,62.040268 
	C79.982132,62.040268 79.988441,61.995930 79.651978,61.977539 
	C77.686928,61.296017 76.058357,60.632885 74.366333,59.606159 
	C74.261833,58.522736 74.220772,57.802906 74.179710,57.083076 
	C74.179710,57.083076 74.153252,57.197117 74.578186,57.180202 
	C76.640366,56.818230 78.277603,56.473167 79.912979,56.105022 
	C79.911118,56.081940 79.873703,56.123703 79.873703,56.123703 
z"/>
<path fill="#211F0B" opacity="1.000000" stroke="none" 
	d="
M80.341431,62.071205 
	C79.961456,61.865547 79.940781,61.690826 79.975449,61.258110 
	C81.552063,61.028996 83.073341,61.057877 85.052917,61.169762 
	C83.907722,61.535885 82.304222,61.819012 80.341431,62.071205 
z"/>
<path fill="#23230C" opacity="1.000000" stroke="none" 
	d="
M85.446701,90.296570 
	C84.831734,90.442932 84.554886,90.496811 84.554886,90.496811 
	C84.554886,90.496811 84.291840,90.394264 84.175842,90.307693 
	C84.104942,89.568329 84.150040,88.915543 84.294418,87.781952 
	C85.630104,87.928856 86.866501,88.556564 88.321289,89.461617 
	C87.713676,89.876038 86.887672,90.013123 85.446701,90.296570 
z"/>
<path fill="#211F0B" opacity="1.000000" stroke="none" 
	d="
M80.064682,53.820122 
	C80.683220,54.337524 81.301758,54.854931 81.944275,55.689407 
	C81.502205,56.018356 81.036156,56.030235 80.221901,56.082909 
	C79.873703,56.123703 79.911118,56.081940 79.946487,55.720207 
	C80.009460,54.845692 80.037071,54.332909 80.064682,53.820122 
z"/>
<path fill="#FFFFFF" opacity="1.000000" stroke="none" 
	d="
M100.481949,98.351639 
	C101.148598,98.349068 101.536461,98.629845 101.924324,98.910629 
	C101.350609,98.818741 100.776886,98.726860 100.481949,98.351639 
z"/>
<path fill="#28270E" opacity="1.000000" stroke="none" 
	d="
M48.042770,37.044937 
	C48.193127,37.179035 48.298752,37.323837 48.404373,37.468639 
	C48.311531,37.441597 48.218689,37.414551 48.092667,37.255867 
	C48.059483,37.124226 47.998032,37.055637 48.042770,37.044937 
z"/>
<path fill="#0B0B04" opacity="1.000000" stroke="none" 
	d="
M50.247910,100.541290 
	C49.716507,100.809906 49.339268,100.700554 49.014114,100.247986 
	C49.511490,99.990952 49.956779,100.077133 50.247910,100.541290 
z"/>
<path fill="#512220" opacity="1.000000" stroke="none" 
	d="
M74.429779,59.969753 
	C76.058357,60.632885 77.686928,61.296017 79.674316,61.978992 
	C78.600288,64.183273 77.328323,66.502144 75.664375,68.493477 
	C74.873123,69.440399 73.317635,69.731659 72.140396,70.378288 
	C71.123604,70.936790 69.454170,71.423264 69.280098,72.208954 
	C68.475296,75.841599 65.910606,75.081657 63.266380,74.657455 
	C62.522907,72.208046 62.020649,70.032448 61.425632,67.455070 
	C65.295807,67.066063 69.392105,66.658440 69.380836,61.176727 
	C69.380020,60.781055 71.238419,60.381561 72.982330,59.961647 
	C73.964775,59.949554 74.197273,59.959656 74.429779,59.969753 
z"/>
<path fill="#C23651" opacity="1.000000" stroke="none" 
	d="
M61.912666,52.179245 
	C61.085976,50.379322 59.689182,47.788792 60.223106,47.297798 
	C62.033779,45.632721 64.527382,44.710289 66.760078,43.504135 
	C67.434334,45.215744 69.123680,47.911945 68.595123,48.456879 
	C66.917503,50.186455 64.412529,51.113525 61.912666,52.179245 
z"/>
<path fill="#B9334D" opacity="1.000000" stroke="none" 
	d="
M66.141602,63.964798 
	C59.579979,65.391991 59.459846,65.146919 61.658749,55.290154 
	C65.939392,56.652996 68.445366,58.828114 66.141602,63.964798 
z"/>
<path fill="#C04058" opacity="1.000000" stroke="none" 
	d="
M50.986111,60.290573 
	C51.324722,59.057323 51.844742,58.125992 52.723213,57.224140 
	C53.173626,57.285030 53.265583,57.316441 53.357540,57.347847 
	C53.228893,57.244041 53.100243,57.140240 52.971588,57.036438 
	C53.583511,56.343224 54.195431,55.650013 54.989052,54.737537 
	C58.548290,52.869316 58.824203,56.159786 58.320328,57.329910 
	C57.445549,59.361382 55.447289,60.945305 53.735039,62.514988 
	C53.589214,62.648666 52.056137,61.269085 50.986111,60.290573 
z"/>
<path fill="#512220" opacity="1.000000" stroke="none" 
	d="
M57.861275,69.870651 
	C56.939217,69.950729 56.149727,69.712334 55.360237,69.473938 
	C55.785110,68.096970 56.209984,66.719994 56.664967,65.245445 
	C61.645138,65.553398 58.653732,67.879173 57.861275,69.870651 
z"/>
<path fill="#141206" opacity="1.000000" stroke="none" 
	d="
M79.851028,53.609734 
	C80.037071,54.332909 80.009460,54.845692 79.948349,55.743294 
	C78.277603,56.473167 76.640366,56.818230 74.636223,57.187889 
	C74.491890,56.144032 74.714470,55.075577 75.295708,53.751934 
	C76.982033,53.464283 78.309700,53.431816 79.851028,53.609734 
z"/>
<path fill="#141206" opacity="1.000000" stroke="none" 
	d="
M74.366333,59.606159 
	C74.197273,59.959656 73.964775,59.949554 73.383812,59.924854 
	C73.218307,59.070827 73.401260,58.231400 73.881958,57.237526 
	C74.220772,57.802906 74.261833,58.522736 74.366333,59.606159 
z"/>
<path fill="#220F0D" opacity="1.000000" stroke="none" 
	d="
M52.985970,57.021915 
	C53.100243,57.140240 53.228893,57.244041 53.357540,57.347847 
	C53.265583,57.316441 53.173626,57.285030 53.054512,57.115303 
	C53.027351,56.976982 53.000347,57.007393 52.985970,57.021915 
z"/>
</svg>